<?xml version="1.0" encoding="iso-8859-1"?>
<!-- Generator: Adobe Illustrator 16.0.0, SVG Export Plug-In . SVG Version: 6.00 Build 0)  -->
<!DOCTYPE svg PUBLIC "-//W3C//DTD SVG 1.1//EN" "http://www.w3.org/Graphics/SVG/1.1/DTD/svg11.dtd">
<svg version="1.1" id="Capa_1" xmlns="http://www.w3.org/2000/svg" xmlns:xlink="http://www.w3.org/1999/xlink" x="0px" y="0px"
	 width="485.196px" height="485.196px" viewBox="0 0 485.196 485.196" style="enable-background:new 0 0 485.196 485.196;"
	 xml:space="preserve">
<g>
	<g>
		<g>
			<polygon points="424.543,318.405 172.047,318.405 65.892,75.806 0,75.806 0,45.479 85.736,45.479 191.892,288.084 
				424.543,288.084 			"/>
		</g>
		<path d="M272.919,394.227c0,25.109-20.376,45.49-45.49,45.49c-25.113,0-45.49-20.381-45.49-45.49
			c0-25.117,20.376-45.489,45.49-45.489C252.543,348.737,272.919,369.109,272.919,394.227z"/>
		<path d="M424.543,394.227c0,25.109-20.372,45.49-45.485,45.49s-45.49-20.381-45.49-45.49c0-25.117,20.377-45.489,45.49-45.489
			S424.543,369.109,424.543,394.227z"/>
		<g>
			<polygon points="473.053,136.457 485.196,106.131 151.628,106.131 163.756,136.457 			"/>
			<polygon points="200.138,227.435 212.266,257.762 424.543,257.762 436.687,227.435 			"/>
			<polygon points="460.941,166.784 175.883,166.784 188.011,197.108 448.798,197.108 			"/>
		</g>
	</g>
</g>
<g>
</g>
<g>
</g>
<g>
</g>
<g>
</g>
<g>
</g>
<g>
</g>
<g>
</g>
<g>
</g>
<g>
</g>
<g>
</g>
<g>
</g>
<g>
</g>
<g>
</g>
<g>
</g>
<g>
</g>
</svg>
