<?xml version="1.0" encoding="iso-8859-1"?>
<!-- Generator: Adobe Illustrator 19.0.0, SVG Export Plug-In . SVG Version: 6.00 Build 0)  -->
<svg version="1.1" id="Capa_1" xmlns="http://www.w3.org/2000/svg" xmlns:xlink="http://www.w3.org/1999/xlink" x="0px" y="0px"
	 viewBox="0 0 448.398 448.398" style="enable-background:new 0 0 448.398 448.398;" xml:space="preserve">
<g>
	<g>
		<circle cx="224.203" cy="160.001" r="16"/>
	</g>
</g>
<g>
	<g>
		<path d="M438.42,336.329c-9.215-14.523-23.047-21.057-39.047-21.057c-16.023,0-33.32,6.982-47.797,19.838l-17.453-11.191
			c1.062-5.695,1.766-11.504,1.91-17.473c23.969-5.867,46.984-13.305,68.121-22.969c24.11-11.023,34.718-39.5,23.703-63.61
			c-8.054-17.646-25.461-28.058-43.672-28.058c-6.68,0-13.461,1.4-19.938,4.355c-14.668,6.707-30.934,12.114-48.062,16.453
			c17.379-20.793,28.016-47.394,28.016-76.617c0-4.355-0.262-8.649-0.711-12.886c23.742-9.328,40.711-32.058,40.711-59.114
			c0-35.346-28.649-64-64-64c-20.61,0-38.758,9.867-50.438,25.012c-14.055-5.777-29.422-9.011-45.562-9.011
			c-16.137,0-31.508,3.234-45.562,9.012C166.959,9.868,148.81,0.001,128.201,0.001c-35.344,0-64,28.654-64,64
			c0,27.054,16.973,49.783,40.711,59.114c-0.454,4.236-0.711,8.531-0.711,12.886c0,29.217,10.633,55.82,28,76.614
			c-17.121-4.34-33.383-9.744-48.047-16.45c-6.469-2.955-13.258-4.355-19.93-4.355c-18.211,0.002-35.617,10.412-43.68,28.058
			c-11.016,24.11-0.406,52.586,23.703,63.61c21.141,9.664,44.152,17.098,68.121,22.966c0.145,5.97,0.848,11.779,1.91,17.474
			L96.826,335.11c-14.477-12.855-31.766-19.838-47.789-19.838c-16,0-29.832,6.53-39.047,21.053
			c-33.726,53.152,40.957,136.824,94.11,105.072l66.05-39.634c16.062,8.91,34.379,14.238,54.051,14.238
			c19.672,0,37.992-5.328,54.054-14.238l66.047,39.634C397.529,473.196,472.1,389.384,438.42,336.329z M370.896,210.719
			c4.226-1.93,8.695-2.91,13.289-2.91c12.5,0,23.93,7.344,29.117,18.707c7.336,16.049,0.25,35.072-15.797,42.408
			c-19.359,8.85-40.367,15.77-62.222,21.31c-2.805-22.683-12.414-43.209-26.707-59.598
			C330.936,225.794,352.131,219.298,370.896,210.719z M328.701,77.128c-5.172-9.158-11.484-17.576-18.793-25.039
			c2.769-2.465,6.289-4.088,10.293-4.088c8.824,0,16,7.178,16,16C336.201,69.638,333.146,74.364,328.701,77.128z M320.201,16.001
			c26.469,0,48,21.534,48,48c0,19.145-11.379,35.463-27.645,43.125c-1.324-5.355-2.961-10.584-4.981-15.629
			c9.789-5.446,16.625-15.496,16.625-27.496c0-17.674-14.324-32-32-32c-8.778,0-16.625,3.633-22.406,9.355
			c-4.199-3.27-8.617-6.258-13.238-8.955C293.357,22.487,305.936,16.001,320.201,16.001z M107.845,107.122
			C91.584,99.458,80.2,83.141,80.2,64.001c0-26.466,21.531-48,48-48c14.27,0,26.851,6.484,35.649,16.398
			c-4.621,2.699-9.043,5.687-13.242,8.957c-5.781-5.722-13.625-9.355-22.406-9.355c-17.672,0-32,14.326-32,32
			c0,12,6.836,22.047,16.625,27.494C110.806,96.54,109.173,101.766,107.845,107.122z M112.201,64.001c0-8.822,7.176-16,16-16
			c4.004,0,7.523,1.621,10.293,4.086c-7.305,7.463-13.621,15.883-18.793,25.041C115.256,74.364,112.201,69.638,112.201,64.001z
			 M120.201,136.001c0-57.346,46.652-104,104-104s104,46.654,104,104c0,29.73-12.61,56.516-32.676,75.488
			c5.371-10.742,8.676-22.683,8.676-35.488c0-20.734-8.129-39.474-21.114-53.703c5.348-2.59,9.114-7.957,9.114-14.297
			c0-8.836-7.164-16-16-16c-7.863,0-14.102,5.779-15.446,13.254c-11.008-5.714-23.317-9.254-36.554-9.254
			c-13.238,0-25.547,3.539-36.554,9.254c-1.344-7.474-7.582-13.254-15.446-13.254c-8.836,0-16,7.164-16,16
			c0,6.34,3.766,11.711,9.114,14.299c-12.984,14.229-21.114,32.966-21.114,53.701c0,12.805,3.305,24.746,8.676,35.488
			C132.81,192.517,120.201,165.731,120.201,136.001z M255.268,261.399c-1.145-4.408-3.207-8.406-5.973-11.863
			c2.566-0.93,25.254-9.535,27.973-9.535c5.602,0,10.668,4.506,10.668,10.68v37.434c0,6.176-5.062,10.682-10.664,10.682
			c-2.66,0-25.519-8.561-28.035-9.463c2.793-3.473,4.879-7.496,6.031-11.934h16.996v-16H255.268z M224.201,240.001
			c-35.637,0-64-29.375-64-64c0-35.346,28.656-64,64-64c35.351,0,64,28.654,64,64C288.201,211.181,259.264,240.001,224.201,240.001z
			 M240.404,269.399c0,8.586-6.836,15.496-15.336,15.867l-1.367-0.01c-8.484-0.389-15.297-7.287-15.297-15.858
			C208.404,248.489,240.404,248.258,240.404,269.399z M193.54,277.399c1.125,4.328,3.129,8.258,5.817,11.674
			c-2.504,0.897-26.094,9.722-28.754,9.722c-5.598,0-10.668-4.506-10.668-10.682v-37.433c0-6.176,5.07-10.68,10.672-10.68
			c2.718,0,26.133,8.871,28.691,9.797c-2.66,3.398-4.645,7.305-5.758,11.602h-17.012v16H193.54z M113.123,290.227
			c-21.875-5.541-42.875-12.457-62.218-21.301c-16.047-7.338-23.141-26.362-15.805-42.41c5.187-11.363,16.625-18.705,29.125-18.707
			c4.586,0,9.054,0.981,13.282,2.906c18.758,8.578,39.957,15.07,62.328,19.914C125.54,247.018,115.928,267.544,113.123,290.227z
			 M89.611,430.266c0,0-0.043,0.019-0.066,0.027c-25.054,8.058-62.766-15.883-70.5-52.855c-1.602-1.603-2.496-18.062,2.266-28.506
			C59.72,336.514,106.861,392.482,89.611,430.266z M163.021,387.382l-54.558,32.736c2.043-18.191-3.617-39.019-17.535-56.926
			c-13.414-17.25-31.359-27.863-48.867-30.883c2.266-0.461,4.473-1.037,6.969-1.037c19.824,0,32.313,11.488,46.234,23.848
			c1.699-1.09,31.324-20.549,33.344-20.549C146.443,334.571,171.615,382.272,163.021,387.382z M268.932,388.618
			c-13.394,7.13-28.531,11.383-44.73,11.383s-31.336-4.256-44.726-11.383c4.707-24.424-24.492-68.867-49.946-69.928
			c-0.774-4.801-1.328-9.672-1.328-14.69c0-19.328,5.851-37.25,15.734-52.313v36.426c0,14.713,11.965,26.682,26.668,26.682
			c6.848,0,35.254-11.057,42.363-13.603l22.305,0.134c7.129,2.554,35.141,13.469,42,13.469c14.703,0,26.664-11.969,26.664-26.682
			v-37.207c10.199,15.222,16.266,33.428,16.266,53.094c0,5.019-0.554,9.889-1.328,14.69
			C293.42,319.758,264.224,364.196,268.932,388.618z M339.943,420.12l-54.641-32.789c-8.496-4.998,16.676-52.756,34.5-52.76
			c2.215,0,31.469,19.348,33.344,20.549c13.914-12.366,26.422-23.848,46.226-23.848c2.5,0,4.711,0.574,6.977,1.037
			c-17.508,3.019-35.457,13.633-48.867,30.883C343.56,381.098,337.904,401.926,339.943,420.12z M415.779,406.208
			c-15.91,20.45-40.164,29.481-56.922,24.086c-17.355-37.965,30.082-93.725,68.234-81.362
			C434.943,366.063,427.268,394.719,415.779,406.208z"/>
	</g>
</g>
<g>
</g>
<g>
</g>
<g>
</g>
<g>
</g>
<g>
</g>
<g>
</g>
<g>
</g>
<g>
</g>
<g>
</g>
<g>
</g>
<g>
</g>
<g>
</g>
<g>
</g>
<g>
</g>
<g>
</g>
</svg>
